<svg width="480" height="39" viewBox="0 0 480 39" fill="none" xmlns="http://www.w3.org/2000/svg">
<path d="M472.084 28.9561C471.029 28.8893 470 28.6755 468.998 28.3148C467.996 27.9541 467.115 27.4665 466.353 26.852C465.605 26.2241 465.044 25.4893 464.67 24.6477L468.217 23.1247C468.391 23.4854 468.691 23.8394 469.119 24.1868C469.559 24.5341 470.074 24.8213 470.662 25.0485C471.249 25.2622 471.864 25.3691 472.505 25.3691C473.133 25.3691 473.714 25.2822 474.249 25.1086C474.796 24.9215 475.244 24.641 475.591 24.2669C475.939 23.8929 476.112 23.4453 476.112 22.9243C476.112 22.3365 475.912 21.8823 475.511 21.5617C475.124 21.2277 474.636 20.9739 474.048 20.8002C473.46 20.6265 472.873 20.4595 472.285 20.2992C470.976 20.0053 469.773 19.6045 468.678 19.0969C467.596 18.5759 466.734 17.9146 466.093 17.113C465.451 16.2981 465.131 15.3028 465.131 14.1272C465.131 12.8447 465.478 11.7359 466.173 10.8007C466.868 9.8522 467.776 9.12412 468.898 8.61646C470.034 8.10881 471.243 7.85498 472.525 7.85498C474.128 7.85498 475.598 8.19564 476.934 8.87697C478.27 9.5583 479.292 10.4934 480 11.6824L476.693 13.6463C476.493 13.2455 476.192 12.8848 475.792 12.5641C475.391 12.2435 474.937 11.9897 474.429 11.8027C473.921 11.6023 473.394 11.4887 472.846 11.462C472.165 11.4353 471.53 11.5154 470.942 11.7025C470.368 11.8761 469.907 12.1567 469.559 12.5441C469.212 12.9315 469.038 13.4258 469.038 14.027C469.038 14.6148 469.246 15.0557 469.66 15.3496C470.074 15.6301 470.595 15.8572 471.223 16.0309C471.864 16.2046 472.519 16.3983 473.187 16.612C474.375 16.9861 475.491 17.447 476.533 17.9947C477.575 18.5291 478.417 19.1904 479.058 19.9786C479.699 20.7668 480.006 21.7287 479.98 22.8642C479.98 24.12 479.599 25.2221 478.838 26.1706C478.089 27.1191 477.114 27.8406 475.912 28.3348C474.709 28.8291 473.434 29.0362 472.084 28.9561Z" fill="currentColor"/>
<path d="M453.178 29.0967C451.334 29.0967 449.651 28.6224 448.128 27.6739C446.618 26.7254 445.409 25.4563 444.501 23.8665C443.606 22.2634 443.158 20.4933 443.158 18.5562C443.158 17.0867 443.419 15.7173 443.94 14.4482C444.461 13.1657 445.175 12.0435 446.084 11.0816C447.006 10.1064 448.074 9.34492 449.29 8.79718C450.506 8.24945 451.802 7.97559 453.178 7.97559C454.714 7.97559 456.123 8.29621 457.406 8.93746C458.688 9.56535 459.784 10.4404 460.692 11.5626C461.601 12.6714 462.269 13.9539 462.696 15.4101C463.124 16.8529 463.251 18.3892 463.077 20.019H447.627C447.801 20.9408 448.135 21.7758 448.629 22.5239C449.136 23.2587 449.778 23.8398 450.553 24.2673C451.341 24.6948 452.216 24.9152 453.178 24.9286C454.193 24.9286 455.115 24.6748 455.943 24.1671C456.785 23.6594 457.473 22.9581 458.007 22.063L462.235 23.0449C461.434 24.8217 460.225 26.2779 458.608 27.4134C456.992 28.5356 455.182 29.0967 453.178 29.0967ZM447.487 16.8328H458.869C458.735 15.871 458.395 15.0026 457.847 14.2278C457.312 13.4396 456.638 12.8183 455.823 12.3641C455.021 11.8966 454.14 11.6628 453.178 11.6628C452.229 11.6628 451.347 11.8899 450.533 12.3441C449.731 12.7983 449.063 13.4195 448.529 14.2077C448.008 14.9826 447.66 15.8576 447.487 16.8328Z" fill="currentColor"/>
<path d="M436.151 8.53637H440.32V28.5754H436.151V8.53637ZM438.276 5.63071C437.634 5.63071 437.1 5.42364 436.673 5.0095C436.245 4.59536 436.031 4.07435 436.031 3.44646C436.031 2.83193 436.245 2.31759 436.673 1.90345C437.1 1.47596 437.628 1.26221 438.256 1.26221C438.87 1.26221 439.391 1.47596 439.819 1.90345C440.246 2.31759 440.46 2.83193 440.46 3.44646C440.46 4.07435 440.246 4.59536 439.819 5.0095C439.404 5.42364 438.89 5.63071 438.276 5.63071Z" fill="currentColor"/>
<path d="M421.992 28.5757V8.53668H426.16V10.6608C426.855 9.83253 427.71 9.17793 428.725 8.69699C429.741 8.21605 430.836 7.97559 432.012 7.97559C432.76 7.97559 433.501 8.07578 434.236 8.27617L432.573 12.4844C432.052 12.284 431.531 12.1838 431.01 12.1838C430.128 12.1838 429.32 12.4042 428.585 12.8451C427.85 13.2726 427.262 13.8537 426.822 14.5885C426.381 15.3232 426.16 16.1381 426.16 17.0332V28.5757H421.992Z" fill="currentColor"/>
<path d="M409.135 29.0967C407.291 29.0967 405.608 28.6224 404.085 27.6739C402.575 26.7254 401.366 25.4563 400.458 23.8665C399.563 22.2634 399.115 20.4933 399.115 18.5562C399.115 17.0867 399.376 15.7173 399.897 14.4482C400.418 13.1657 401.132 12.0435 402.041 11.0816C402.963 10.1064 404.031 9.34492 405.247 8.79718C406.463 8.24945 407.759 7.97559 409.135 7.97559C410.978 7.97559 412.655 8.44984 414.165 9.39836C415.687 10.3469 416.897 11.6227 417.792 13.2258C418.7 14.8289 419.154 16.6057 419.154 18.5562C419.154 20.0123 418.894 21.375 418.373 22.6441C417.852 23.9133 417.13 25.0355 416.209 26.0107C415.3 26.9726 414.238 27.7274 413.022 28.2751C411.82 28.8228 410.524 29.0967 409.135 29.0967ZM409.135 24.9286C410.244 24.9286 411.239 24.6347 412.121 24.0469C413.002 23.4591 413.697 22.6842 414.205 21.7223C414.726 20.7471 414.986 19.6917 414.986 18.5562C414.986 17.3939 414.719 16.3252 414.185 15.3499C413.664 14.3747 412.962 13.5999 412.08 13.0254C411.199 12.4376 410.217 12.1437 409.135 12.1437C408.039 12.1437 407.044 12.4376 406.149 13.0254C405.267 13.6132 404.566 14.3947 404.045 15.37C403.537 16.3452 403.283 17.4073 403.283 18.5562C403.283 19.7452 403.551 20.8206 404.085 21.7825C404.619 22.7443 405.327 23.5125 406.209 24.0869C407.104 24.648 408.079 24.9286 409.135 24.9286Z" fill="currentColor"/>
<path d="M389.666 28.9563C388.611 28.8895 387.582 28.6758 386.58 28.3151C385.578 27.9544 384.697 27.4667 383.935 26.8522C383.187 26.2243 382.626 25.4896 382.252 24.6479L385.799 23.125C385.973 23.4857 386.273 23.8397 386.701 24.187C387.141 24.5344 387.656 24.8216 388.244 25.0487C388.831 25.2624 389.446 25.3693 390.087 25.3693C390.715 25.3693 391.296 25.2825 391.831 25.1088C392.378 24.9218 392.826 24.6412 393.173 24.2672C393.521 23.8931 393.694 23.4456 393.694 22.9246C393.694 22.3368 393.494 21.8825 393.093 21.5619C392.706 21.2279 392.218 20.9741 391.63 20.8004C391.042 20.6268 390.455 20.4598 389.867 20.2994C388.558 20.0055 387.355 19.6048 386.26 19.0971C385.178 18.5761 384.316 17.9148 383.675 17.1132C383.033 16.2983 382.713 15.3031 382.713 14.1274C382.713 12.8449 383.06 11.7361 383.755 10.801C384.45 9.85245 385.358 9.12436 386.48 8.61671C387.616 8.10905 388.825 7.85522 390.107 7.85522C391.71 7.85522 393.18 8.19589 394.516 8.87721C395.852 9.55854 396.874 10.4937 397.582 11.6827L394.275 13.6465C394.075 13.2457 393.774 12.885 393.374 12.5644C392.973 12.2438 392.519 11.9899 392.011 11.8029C391.503 11.6025 390.976 11.489 390.428 11.4622C389.747 11.4355 389.112 11.5157 388.524 11.7027C387.95 11.8764 387.489 12.1569 387.141 12.5444C386.794 12.9318 386.62 13.4261 386.62 14.0272C386.62 14.6151 386.828 15.0559 387.242 15.3498C387.656 15.6304 388.177 15.8575 388.805 16.0311C389.446 16.2048 390.101 16.3985 390.769 16.6123C391.958 16.9863 393.073 17.4472 394.115 17.995C395.157 18.5293 395.999 19.1906 396.64 19.9788C397.281 20.767 397.588 21.7289 397.562 22.8644C397.562 24.1202 397.181 25.2224 396.42 26.1709C395.671 27.1194 394.696 27.8408 393.494 28.3351C392.291 28.8294 391.016 29.0365 389.666 28.9563Z" fill="currentColor"/>
<path d="M372.729 28.9563C371.673 28.8895 370.645 28.6758 369.643 28.3151C368.641 27.9544 367.759 27.4667 366.998 26.8522C366.25 26.2243 365.689 25.4896 365.314 24.6479L368.861 23.125C369.035 23.4857 369.336 23.8397 369.763 24.187C370.204 24.5344 370.718 24.8216 371.306 25.0487C371.894 25.2624 372.508 25.3693 373.15 25.3693C373.778 25.3693 374.359 25.2825 374.893 25.1088C375.441 24.9218 375.888 24.6412 376.236 24.2672C376.583 23.8931 376.757 23.4456 376.757 22.9246C376.757 22.3368 376.556 21.8825 376.156 21.5619C375.768 21.2279 375.281 20.9741 374.693 20.8004C374.105 20.6268 373.517 20.4598 372.929 20.2994C371.62 20.0055 370.418 19.6048 369.322 19.0971C368.24 18.5761 367.378 17.9148 366.737 17.1132C366.096 16.2983 365.775 15.3031 365.775 14.1274C365.775 12.8449 366.123 11.7361 366.817 10.801C367.512 9.85245 368.421 9.12436 369.543 8.61671C370.678 8.10905 371.887 7.85522 373.17 7.85522C374.773 7.85522 376.242 8.19589 377.578 8.87721C378.914 9.55854 379.936 10.4937 380.644 11.6827L377.338 13.6465C377.137 13.2457 376.837 12.885 376.436 12.5644C376.035 12.2438 375.581 11.9899 375.073 11.8029C374.566 11.6025 374.038 11.489 373.49 11.4622C372.809 11.4355 372.174 11.5157 371.587 11.7027C371.012 11.8764 370.551 12.1569 370.204 12.5444C369.857 12.9318 369.683 13.4261 369.683 14.0272C369.683 14.6151 369.89 15.0559 370.304 15.3498C370.718 15.6304 371.239 15.8575 371.867 16.0311C372.508 16.2048 373.163 16.3985 373.831 16.6123C375.02 16.9863 376.136 17.4472 377.178 17.995C378.22 18.5293 379.061 19.1906 379.702 19.9788C380.344 20.767 380.651 21.7289 380.624 22.8644C380.624 24.1202 380.244 25.2224 379.482 26.1709C378.734 27.1194 377.759 27.8408 376.556 28.3351C375.354 28.8294 374.078 29.0365 372.729 28.9563Z" fill="currentColor"/>
<path d="M353.822 29.0967C351.979 29.0967 350.295 28.6224 348.772 27.6739C347.263 26.7254 346.054 25.4563 345.145 23.8665C344.25 22.2634 343.803 20.4933 343.803 18.5562C343.803 17.0867 344.063 15.7173 344.584 14.4482C345.105 13.1657 345.82 12.0435 346.728 11.0816C347.65 10.1064 348.719 9.34492 349.935 8.79718C351.15 8.24945 352.446 7.97559 353.822 7.97559C355.359 7.97559 356.768 8.29621 358.05 8.93746C359.333 9.56535 360.428 10.4404 361.337 11.5626C362.245 12.6714 362.913 13.9539 363.341 15.4101C363.768 16.8529 363.895 18.3892 363.721 20.019H348.271C348.445 20.9408 348.779 21.7758 349.273 22.5239C349.781 23.2587 350.422 23.8398 351.197 24.2673C351.985 24.6948 352.86 24.9152 353.822 24.9286C354.838 24.9286 355.759 24.6748 356.588 24.1671C357.429 23.6594 358.117 22.9581 358.652 22.063L362.88 23.0449C362.078 24.8217 360.869 26.2779 359.253 27.4134C357.636 28.5356 355.826 29.0967 353.822 29.0967ZM348.131 16.8328H359.513C359.38 15.871 359.039 15.0026 358.491 14.2278C357.957 13.4396 357.282 12.8183 356.467 12.3641C355.666 11.8966 354.784 11.6628 353.822 11.6628C352.874 11.6628 351.992 11.8899 351.177 12.3441C350.376 12.7983 349.708 13.4195 349.173 14.2077C348.652 14.9826 348.305 15.8576 348.131 16.8328Z" fill="currentColor"/>
<path d="M338.569 22.8846L342.296 24.9085C341.388 26.1777 340.232 27.193 338.83 27.9545C337.44 28.716 335.931 29.0967 334.301 29.0967C332.457 29.0967 330.774 28.6224 329.251 27.6739C327.741 26.7254 326.532 25.4563 325.624 23.8665C324.729 22.2634 324.281 20.4933 324.281 18.5562C324.281 17.0867 324.542 15.7173 325.063 14.4482C325.584 13.1657 326.298 12.0435 327.207 11.0816C328.129 10.1064 329.197 9.34492 330.413 8.79718C331.629 8.24945 332.925 7.97559 334.301 7.97559C335.931 7.97559 337.44 8.35633 338.83 9.11781C340.232 9.87929 341.388 10.9013 342.296 12.1838L338.569 14.2077C338.008 13.5397 337.353 13.0321 336.605 12.6848C335.857 12.324 335.089 12.1437 334.301 12.1437C333.205 12.1437 332.21 12.4443 331.315 13.0455C330.433 13.6333 329.732 14.4148 329.211 15.39C328.703 16.3519 328.449 17.4073 328.449 18.5562C328.449 19.6917 328.71 20.7471 329.231 21.7223C329.752 22.6842 330.453 23.4591 331.335 24.0469C332.23 24.6347 333.219 24.9286 334.301 24.9286C335.129 24.9286 335.917 24.7416 336.665 24.3675C337.413 23.9934 338.048 23.4991 338.569 22.8846Z" fill="currentColor"/>
<path d="M319.048 22.8846L322.775 24.9085C321.866 26.1777 320.711 27.193 319.308 27.9545C317.919 28.716 316.409 29.0967 314.779 29.0967C312.936 29.0967 311.252 28.6224 309.729 27.6739C308.22 26.7254 307.011 25.4563 306.102 23.8665C305.207 22.2634 304.76 20.4933 304.76 18.5562C304.76 17.0867 305.02 15.7173 305.541 14.4482C306.062 13.1657 306.777 12.0435 307.685 11.0816C308.607 10.1064 309.676 9.34492 310.892 8.79718C312.107 8.24945 313.403 7.97559 314.779 7.97559C316.409 7.97559 317.919 8.35633 319.308 9.11781C320.711 9.87929 321.866 10.9013 322.775 12.1838L319.048 14.2077C318.486 13.5397 317.832 13.0321 317.084 12.6848C316.336 12.324 315.567 12.1437 314.779 12.1437C313.684 12.1437 312.689 12.4443 311.793 13.0455C310.912 13.6333 310.21 14.4148 309.689 15.39C309.182 16.3519 308.928 17.4073 308.928 18.5562C308.928 19.6917 309.188 20.7471 309.709 21.7223C310.23 22.6842 310.932 23.4591 311.813 24.0469C312.709 24.6347 313.697 24.9286 314.779 24.9286C315.608 24.9286 316.396 24.7416 317.144 24.3675C317.892 23.9934 318.527 23.4991 319.048 22.8846Z" fill="currentColor"/>
<path d="M298.588 8.53668H302.756V28.5757H298.568L298.407 25.67C297.819 26.6987 297.025 27.527 296.023 28.1549C295.021 28.7828 293.838 29.0967 292.476 29.0967C291.006 29.0967 289.623 28.8228 288.328 28.2751C287.032 27.714 285.89 26.9392 284.901 25.9506C283.926 24.962 283.164 23.8264 282.616 22.5439C282.069 21.2481 281.795 19.8587 281.795 18.3758C281.795 16.9464 282.062 15.6038 282.596 14.348C283.131 13.0789 283.872 11.97 284.821 11.0215C285.769 10.073 286.865 9.33156 288.107 8.79718C289.363 8.24945 290.706 7.97559 292.135 7.97559C293.591 7.97559 294.874 8.30957 295.983 8.97753C297.105 9.63214 298.033 10.4738 298.768 11.5024L298.588 8.53668ZM292.376 25.0689C293.551 25.0689 294.58 24.7816 295.462 24.2072C296.343 23.6194 297.025 22.8312 297.505 21.8426C298 20.854 298.247 19.7585 298.247 18.5562C298.247 17.3405 298 16.2383 297.505 15.2497C297.011 14.2612 296.323 13.4796 295.441 12.9052C294.573 12.3174 293.551 12.0235 292.376 12.0235C291.213 12.0235 290.151 12.3174 289.189 12.9052C288.227 13.493 287.466 14.2812 286.905 15.2698C286.344 16.2584 286.063 17.3538 286.063 18.5562C286.063 19.7719 286.35 20.874 286.925 21.8626C287.513 22.8378 288.281 23.6194 289.229 24.2072C290.191 24.7816 291.24 25.0689 292.376 25.0689Z" fill="currentColor"/>
<path d="M241.457 0.359863H251.156V2.60423H247.749V14.4673H244.864L244.904 2.60423H241.457V0.359863ZM269.512 0.359863V14.4673H266.826L266.786 4.24743L262.418 14.4673H260.374L256.045 4.08712V14.4673H253.4V0.359863H257.128L261.496 11.0607L265.985 0.359863H269.512Z" fill="currentColor"/>
<path d="M235.917 22.8846L239.644 24.9085C238.736 26.1777 237.58 27.193 236.177 27.9545C234.788 28.716 233.278 29.0967 231.648 29.0967C229.805 29.0967 228.122 28.6224 226.599 27.6739C225.089 26.7254 223.88 25.4563 222.972 23.8665C222.076 22.2634 221.629 20.4933 221.629 18.5562C221.629 17.0867 221.889 15.7173 222.41 14.4482C222.931 13.1657 223.646 12.0435 224.555 11.0816C225.476 10.1064 226.545 9.34492 227.761 8.79718C228.977 8.24945 230.272 7.97559 231.648 7.97559C233.278 7.97559 234.788 8.35633 236.177 9.11781C237.58 9.87929 238.736 10.9013 239.644 12.1838L235.917 14.2077C235.356 13.5397 234.701 13.0321 233.953 12.6848C233.205 12.324 232.437 12.1437 231.648 12.1437C230.553 12.1437 229.558 12.4443 228.663 13.0455C227.781 13.6333 227.08 14.4148 226.559 15.39C226.051 16.3519 225.797 17.4073 225.797 18.5562C225.797 19.6917 226.058 20.7471 226.579 21.7223C227.1 22.6842 227.801 23.4591 228.683 24.0469C229.578 24.6347 230.566 24.9286 231.648 24.9286C232.477 24.9286 233.265 24.7416 234.013 24.3675C234.761 23.9934 235.396 23.4991 235.917 22.8846Z" fill="currentColor"/>
<path d="M215.455 8.53668H219.623V28.5757H215.435L215.274 25.67C214.687 26.6987 213.892 27.527 212.89 28.1549C211.888 28.7828 210.706 29.0967 209.343 29.0967C207.873 29.0967 206.491 28.8228 205.195 28.2751C203.899 27.714 202.757 26.9392 201.768 25.9506C200.793 24.962 200.031 23.8264 199.484 22.5439C198.936 21.2481 198.662 19.8587 198.662 18.3758C198.662 16.9464 198.929 15.6038 199.464 14.348C199.998 13.0789 200.739 11.97 201.688 11.0215C202.637 10.073 203.732 9.33156 204.974 8.79718C206.23 8.24945 207.573 7.97559 209.002 7.97559C210.458 7.97559 211.741 8.30957 212.85 8.97753C213.972 9.63214 214.9 10.4738 215.635 11.5024L215.455 8.53668ZM209.243 25.0689C210.418 25.0689 211.447 24.7816 212.329 24.2072C213.21 23.6194 213.892 22.8312 214.373 21.8426C214.867 20.854 215.114 19.7585 215.114 18.5562C215.114 17.3405 214.867 16.2383 214.373 15.2497C213.878 14.2612 213.19 13.4796 212.309 12.9052C211.44 12.3174 210.418 12.0235 209.243 12.0235C208.08 12.0235 207.018 12.3174 206.057 12.9052C205.095 13.493 204.333 14.2812 203.772 15.2698C203.211 16.2584 202.93 17.3538 202.93 18.5562C202.93 19.7719 203.218 20.874 203.792 21.8626C204.38 22.8378 205.148 23.6194 206.097 24.2072C207.058 24.7816 208.107 25.0689 209.243 25.0689Z" fill="currentColor"/>
<path d="M186.646 28.5757V8.53668H190.815V10.6608C191.509 9.83253 192.364 9.17793 193.38 8.69699C194.395 8.21605 195.49 7.97559 196.666 7.97559C197.414 7.97559 198.156 8.07578 198.89 8.27617L197.227 12.4844C196.706 12.284 196.185 12.1838 195.664 12.1838C194.782 12.1838 193.974 12.4042 193.239 12.8451C192.505 13.2726 191.917 13.8537 191.476 14.5885C191.035 15.3232 190.815 16.1381 190.815 17.0332V28.5757H186.646Z" fill="currentColor"/>
<path d="M185.919 0.520508V4.68862H176.982V28.5751H172.814V4.68862H163.896V0.520508H185.919Z" fill="currentColor"/>
<path d="M163.76 16.0112V28.5757H159.592V17.0332C159.592 16.1381 159.371 15.3232 158.93 14.5885C158.503 13.8537 157.922 13.2726 157.187 12.8451C156.466 12.4042 155.651 12.1838 154.742 12.1838C153.86 12.1838 153.052 12.4042 152.317 12.8451C151.583 13.2726 150.995 13.8537 150.554 14.5885C150.113 15.3232 149.893 16.1381 149.893 17.0332V28.5757H145.725V8.53668H149.893V10.6608C150.587 9.83253 151.442 9.17793 152.458 8.69699C153.473 8.21605 154.568 7.97559 155.744 7.97559C157.227 7.97559 158.576 8.33629 159.792 9.05769C161.008 9.77909 161.97 10.7476 162.678 11.9633C163.399 13.179 163.76 14.5283 163.76 16.0112Z" fill="currentColor"/>
<path d="M128.466 29.0966C126.569 29.0966 124.785 28.7226 123.115 27.9745C121.445 27.213 119.976 26.1643 118.707 24.8283C117.437 23.4924 116.442 21.9494 115.721 20.1993C114.999 18.4359 114.639 16.5522 114.639 14.5483C114.639 12.5444 114.999 10.6674 115.721 8.91736C116.442 7.15393 117.437 5.60424 118.707 4.26831C119.976 2.93238 121.445 1.89035 123.115 1.14222C124.785 0.380742 126.569 0 128.466 0C130.376 0 132.166 0.380742 133.836 1.14222C135.506 1.89035 136.975 2.93238 138.245 4.26831C139.514 5.60424 140.502 7.15393 141.21 8.91736C141.932 10.6674 142.293 12.5444 142.293 14.5483C142.293 16.5522 141.932 18.4359 141.21 20.1993C140.502 21.9494 139.514 23.4924 138.245 24.8283C136.975 26.1643 135.506 27.213 133.836 27.9745C132.166 28.7226 130.376 29.0966 128.466 29.0966ZM128.466 24.9285C129.802 24.9285 131.051 24.6547 132.213 24.1069C133.375 23.5592 134.397 22.8111 135.279 21.8626C136.174 20.9007 136.869 19.7985 137.363 18.5561C137.871 17.3003 138.124 15.9644 138.124 14.5483C138.124 13.1322 137.871 11.7963 137.363 10.5405C136.869 9.28474 136.174 8.1826 135.279 7.23408C134.397 6.27221 133.375 5.52409 132.213 4.98971C131.051 4.44198 129.802 4.16812 128.466 4.16812C127.13 4.16812 125.881 4.44198 124.718 4.98971C123.556 5.53745 122.527 6.29225 121.632 7.25412C120.751 8.20264 120.056 9.30478 119.548 10.5606C119.054 11.803 118.807 13.1322 118.807 14.5483C118.807 15.9778 119.054 17.3204 119.548 18.5762C120.056 19.8186 120.751 20.9207 121.632 21.8826C122.527 22.8311 123.556 23.5792 124.718 24.127C125.881 24.6613 127.13 24.9285 128.466 24.9285Z" fill="currentColor"/>
<path d="M102.615 16.0112V28.5757H98.4471V17.0332C98.4471 16.1381 98.2266 15.3232 97.7858 14.5885C97.3583 13.8537 96.7772 13.2726 96.0424 12.8451C95.321 12.4042 94.5061 12.1838 93.5976 12.1838C92.7159 12.1838 91.9077 12.4042 91.1729 12.8451C90.4382 13.2726 89.8503 13.8537 89.4095 14.5885C88.9686 15.3232 88.7482 16.1381 88.7482 17.0332V28.5757H84.5801V8.53668H88.7482V10.6608C89.4429 9.83253 90.2979 9.17793 91.3132 8.69699C92.3285 8.21605 93.424 7.97559 94.5996 7.97559C96.0825 7.97559 97.4318 8.33629 98.6475 9.05769C99.8632 9.77909 100.825 10.7476 101.533 11.9633C102.254 13.179 102.615 14.5283 102.615 16.0112Z" fill="currentColor"/>
<path d="M71.7226 29.0967C69.879 29.0967 68.1958 28.6224 66.6728 27.6739C65.1632 26.7254 63.9542 25.4563 63.0457 23.8665C62.1507 22.2634 61.7031 20.4933 61.7031 18.5562C61.7031 17.0867 61.9636 15.7173 62.4846 14.4482C63.0057 13.1657 63.7204 12.0435 64.6288 11.0816C65.5506 10.1064 66.6194 9.34492 67.8351 8.79718C69.0508 8.24945 70.3466 7.97559 71.7226 7.97559C73.5662 7.97559 75.2428 8.44984 76.7524 9.39836C78.2754 10.3469 79.4844 11.6227 80.3795 13.2258C81.2879 14.8289 81.7421 16.6057 81.7421 18.5562C81.7421 20.0123 81.4816 21.375 80.9606 22.6441C80.4396 23.9133 79.7182 25.0355 78.7964 26.0107C77.888 26.9726 76.8259 27.7274 75.6102 28.2751C74.4079 28.8228 73.112 29.0967 71.7226 29.0967ZM71.7226 24.9286C72.8315 24.9286 73.8267 24.6347 74.7084 24.0469C75.5902 23.4591 76.2848 22.6842 76.7925 21.7223C77.3135 20.7471 77.574 19.6917 77.574 18.5562C77.574 17.3939 77.3068 16.3252 76.7725 15.3499C76.2514 14.3747 75.5501 13.5999 74.6684 13.0254C73.7867 12.4376 72.8047 12.1437 71.7226 12.1437C70.6272 12.1437 69.6319 12.4376 68.7368 13.0254C67.8551 13.6132 67.1537 14.3947 66.6327 15.37C66.1251 16.3452 65.8712 17.4073 65.8712 18.5562C65.8712 19.7452 66.1384 20.8206 66.6728 21.7825C67.2072 22.7443 67.9152 23.5125 68.7969 24.0869C69.692 24.648 70.6672 24.9286 71.7226 24.9286Z" fill="currentColor"/>
<path d="M52.2543 28.9561C51.1989 28.8893 50.1702 28.6755 49.1683 28.3148C48.1663 27.9541 47.2846 27.4665 46.5231 26.852C45.775 26.2241 45.2139 25.4893 44.8398 24.6477L48.3867 23.1247C48.5604 23.4854 48.861 23.8394 49.2885 24.1868C49.7294 24.5341 50.2437 24.8213 50.8315 25.0485C51.4193 25.2622 52.0338 25.3691 52.6751 25.3691C53.303 25.3691 53.8841 25.2822 54.4185 25.1086C54.9662 24.9215 55.4138 24.641 55.7611 24.2669C56.1084 23.8929 56.2821 23.4453 56.2821 22.9243C56.2821 22.3365 56.0817 21.8823 55.6809 21.5617C55.2935 21.2277 54.8059 20.9739 54.2181 20.8002C53.6303 20.6265 53.0425 20.4595 52.4547 20.2992C51.1455 20.0053 49.9431 19.6045 48.8476 19.0969C47.7655 18.5759 46.9039 17.9146 46.2626 17.113C45.6214 16.2981 45.3007 15.3028 45.3007 14.1272C45.3007 12.8447 45.6481 11.7359 46.3428 10.8007C47.0375 9.8522 47.9459 9.12412 49.0681 8.61646C50.2036 8.10881 51.4126 7.85498 52.6951 7.85498C54.2983 7.85498 55.7678 8.19564 57.1037 8.87697C58.4397 9.5583 59.4616 10.4934 60.1697 11.6824L56.8632 13.6463C56.6629 13.2455 56.3623 12.8848 55.9615 12.5641C55.5607 12.2435 55.1065 11.9897 54.5988 11.8027C54.0912 11.6023 53.5635 11.4887 53.0158 11.462C52.3344 11.4353 51.6999 11.5154 51.1121 11.7025C50.5376 11.8761 50.0767 12.1567 49.7294 12.5441C49.382 12.9315 49.2083 13.4258 49.2083 14.027C49.2083 14.6148 49.4154 15.0557 49.8296 15.3496C50.2437 15.6301 50.7647 15.8572 51.3926 16.0309C52.0338 16.2046 52.6885 16.3983 53.3564 16.612C54.5454 16.9861 55.6609 17.447 56.7029 17.9947C57.745 18.5291 58.5866 19.1904 59.2279 19.9786C59.8691 20.7668 60.1764 21.7287 60.1496 22.8642C60.1496 24.12 59.7689 25.2221 59.0074 26.1706C58.2593 27.1191 57.2841 27.8406 56.0817 28.3348C54.8794 28.8291 53.6036 29.0362 52.2543 28.9561Z" fill="currentColor"/>
<path d="M39.1963 8.53613H43.6449L32.6635 38.5946H28.2349L31.862 28.5751L24.668 8.53613H29.2168L33.946 22.864L39.1963 8.53613Z" fill="currentColor"/>
<path d="M0 28.5751V0.520508H9.27806C11.2152 0.520508 13.032 0.88789 14.7287 1.62265C16.4253 2.34406 17.9149 3.35269 19.1974 4.64854C20.4799 5.93104 21.4818 7.42061 22.2032 9.11724C22.938 10.8005 23.3054 12.6107 23.3054 14.5478C23.3054 16.4849 22.938 18.3018 22.2032 19.9984C21.4818 21.6817 20.4799 23.1713 19.1974 24.4671C17.9149 25.7496 16.4253 26.7583 14.7287 27.493C13.032 28.2144 11.2152 28.5751 9.27806 28.5751H0ZM4.16811 24.407H9.27806C10.6407 24.407 11.9099 24.1532 13.0855 23.6455C14.2745 23.1379 15.3232 22.4298 16.2316 21.5214C17.1534 20.613 17.8681 19.5642 18.3758 18.3753C18.8834 17.1863 19.1373 15.9105 19.1373 14.5478C19.1373 13.1852 18.8834 11.9093 18.3758 10.7204C17.8681 9.53139 17.1534 8.48267 16.2316 7.57424C15.3232 6.6658 14.2745 5.95776 13.0855 5.4501C11.9099 4.94245 10.6407 4.68862 9.27806 4.68862H4.16811V24.407Z" fill="currentColor"/>
</svg>
