<?xml version="1.0" encoding="UTF-8"?>
<svg id="Layer_1" xmlns="http://www.w3.org/2000/svg" version="1.1" viewBox="0 0 17 17">
  <!-- Generator: Adobe Illustrator 29.5.0, SVG Export Plug-In . SVG Version: 2.1.0 Build 137)  -->
  <path d="M12.2,2.9h-.2c-.2-.5-.5-1-.9-1.4-.7-.7-1.5-1-2.5-1.1h-.2c-1,0-1.9.4-2.7,1.1h-.1c-.3.5-.6.9-.7,1.4h-.2c-2.1,0-3.8,1.7-3.8,3.8v6.4c.1,2,1.7,3.6,3.8,3.6h7.5c2,0,3.6-1.6,3.7-3.6v-.2s0-6.2,0-6.2c0-2.1-1.7-3.8-3.8-3.8ZM6.9,2.5h.2c.4-.5.9-.7,1.4-.7h.2c.5,0,1,.3,1.4.7h0c0,0-1.7,0-1.7,0h-1.7s0,0,0,0ZM14.5,12.9c0,1.2-1,2.2-2.2,2.2h-7.5c-1.2,0-2.2-1-2.2-2.2v-6.2c0-1.2,1-2.2,2.2-2.2h7.5c1.2,0,2.2,1,2.2,2.2v6.2Z"/>
</svg>