<svg width="366" height="101" viewBox="0 0 366 101" fill="none" xmlns="http://www.w3.org/2000/svg">
<rect x="0.722656" y="0.530273" width="365" height="100" fill="#333333"/>
<path d="M70.3553 28.0938C55.6469 28.0938 43.7227 39.9487 43.7227 54.5716C43.7227 69.1945 55.6469 81.0494 70.3553 81.0494C85.0636 81.0494 96.9879 69.1945 96.9879 54.5716C96.9879 39.9487 85.0636 28.0938 70.3553 28.0938ZM70.3553 71.5891C60.9038 71.5891 53.2382 63.9681 53.2382 54.5716C53.2382 45.175 60.9038 37.554 70.3553 37.554C79.8067 37.554 87.4723 45.175 87.4723 54.5716C87.4723 63.9681 79.8067 71.5891 70.3553 71.5891Z" fill="#F9F9F9"/>
<path d="M127.294 31.335C114.39 31.335 103.922 41.7422 103.922 54.5713V81.0492H113.566V55.236C113.566 47.6969 119.711 41.5783 127.303 41.5783C134.896 41.5783 141.041 47.6878 141.041 55.236V81.0492H150.685V54.5713C150.685 41.7422 140.217 31.335 127.312 31.335H127.294Z" fill="#F9F9F9"/>
<path d="M168.432 10.5303H158.789V57.8134C158.789 70.6426 169.257 81.0498 182.161 81.0498C182.875 81.0498 183.59 81.0133 184.295 80.9496V70.6152C183.599 70.7245 182.893 70.7974 182.161 70.7974C174.578 70.7974 168.423 64.6878 168.423 57.1396V42.626H184.286V33.0382H168.423V10.5303H168.432Z" fill="#F9F9F9"/>
<path d="M191.833 55.5372V81.0589H201.477V56.2109C201.477 48.6719 207.623 42.5532 215.215 42.5532C215.938 42.5532 216.653 42.626 217.349 42.7353V32.4009C216.644 32.3372 215.938 32.3008 215.215 32.3008C202.311 32.3008 191.843 42.708 191.843 55.5372H191.833Z" fill="#F9F9F9"/>
<path d="M246.534 28.0938C231.826 28.0938 219.902 39.9487 219.902 54.5716C219.902 69.1945 231.826 81.0494 246.534 81.0494C252.991 81.0494 258.917 78.764 263.532 74.958V78.9552H273.176V54.5716C273.176 39.9487 261.252 28.0938 246.544 28.0938H246.534ZM246.534 71.5891C237.083 71.5891 229.417 63.9681 229.417 54.5716C229.417 45.175 237.083 37.554 246.534 37.554C255.986 37.554 263.652 45.175 263.652 54.5716C263.652 63.9681 255.986 71.5891 246.534 71.5891Z" fill="#F9F9F9"/>
<path d="M316.45 66.8011C313.373 69.7603 309.188 71.5904 304.563 71.5904C295.111 71.5904 287.446 63.9694 287.446 54.5729C287.446 45.1763 295.111 37.5553 304.563 37.5553C309.398 37.5553 313.758 39.5584 316.872 42.7635L323.722 36.1895C323.722 36.1895 323.713 36.1804 323.704 36.1713C318.859 31.1908 312.073 28.0859 304.563 28.0859C289.854 28.0859 277.93 39.9409 277.93 54.5638C277.93 69.1866 289.854 81.0416 304.563 81.0416C311.752 81.0416 318.282 78.2008 323.072 73.5936L316.45 66.7829V66.8011Z" fill="#F9F9F9"/>
</svg>
