<svg width="130" height="45" viewBox="0 0 130 45" fill="none" xmlns="http://www.w3.org/2000/svg">
<path d="M19.432 44.072C15.632 44.072 12.292 43.352 9.41203 41.912C6.53203 40.432 4.27203 38.232 2.63203 35.312C1.03203 32.392 0.232031 28.772 0.232031 24.452C0.232031 18.612 1.79203 13.992 4.91203 10.592C8.03203 7.15203 12.672 5.43203 18.832 5.43203C20.992 5.43203 23.132 5.67203 25.252 6.15203C27.412 6.63203 29.412 7.41203 31.252 8.49203L28.552 16.052C27.592 15.452 26.392 14.992 24.952 14.672C23.512 14.312 22.132 14.132 20.812 14.132C17.692 14.132 15.272 15.092 13.552 17.012C11.872 18.892 11.032 21.432 11.032 24.632C11.032 28.152 11.992 30.832 13.912 32.672C15.872 34.472 18.392 35.372 21.472 35.372C23.192 35.372 24.812 35.112 26.332 34.592C27.852 34.072 29.172 33.432 30.292 32.672L33.412 39.392C31.932 40.512 30.092 41.572 27.892 42.572C25.692 43.572 22.872 44.072 19.432 44.072Z" fill="#FFA220"/>
<path d="M38.8008 43.832V4.83203L48.4008 4.83203V43.832H38.8008Z" fill="#383838"/>
<path d="M54.3867 43.832V14.912H63.9867V43.832L54.3867 43.832ZM59.1867 11.192C57.5867 11.192 56.2867 10.692 55.2867 9.69203C54.2867 8.69203 53.7867 7.45203 53.7867 5.97203C53.7867 4.49203 54.2867 3.25203 55.2867 2.25203C56.2867 1.25203 57.5867 0.752028 59.1867 0.752028C60.8267 0.752028 62.1267 1.25203 63.0867 2.25203C64.0867 3.25203 64.5867 4.49203 64.5867 5.97203C64.5867 7.45203 64.0867 8.69203 63.0867 9.69203C62.1267 10.692 60.8267 11.192 59.1867 11.192Z" fill="#3EA8FF"/>
<path d="M85.5727 44.072C82.4127 44.072 79.6127 43.432 77.1727 42.152C74.7327 40.872 72.8127 39.012 71.4127 36.572C70.0527 34.132 69.3727 31.172 69.3727 27.692C69.3727 22.972 70.6927 19.232 73.3327 16.472C75.9727 13.712 79.7927 12.332 84.7927 12.332C86.6727 12.332 88.5127 12.552 90.3127 12.992C92.1527 13.392 93.8127 14.032 95.2927 14.912L92.9527 21.692C91.3527 20.732 89.4327 20.252 87.1927 20.252C84.6327 20.252 82.6727 20.892 81.3127 22.172C79.9927 23.452 79.3327 25.292 79.3327 27.692C79.3327 30.372 80.1127 32.452 81.6727 33.932C83.2327 35.412 85.2927 36.152 87.8527 36.152C89.0127 36.152 90.1527 35.992 91.2727 35.672C92.4327 35.352 93.4127 34.892 94.2127 34.292L96.8527 40.232C95.6527 41.192 94.1527 42.072 92.3527 42.872C90.5527 43.672 88.2927 44.072 85.5727 44.072Z" fill="#56BF00"/>
<path d="M123.258 44.792L111.858 32.192V43.832H102.258V4.83203L111.858 4.83203V24.212L122.298 11.732L128.838 17.312L119.298 28.232L129.678 38.732L123.258 44.792Z" fill="#FF6769"/>
</svg>
