<svg width="151" height="74" viewBox="0 0 151 74" fill="none" xmlns="http://www.w3.org/2000/svg">
<path d="M0.594603 24.6856C0.424417 25.0517 0.339932 25.4773 0.366236 25.9726C0.481521 27.9198 2.22851 29.092 3.88867 29.6982C16.7981 34.3979 29.7097 39.1013 42.6183 43.8038C44.262 44.4021 46.5993 44.024 47.6709 42.5593C49.0427 40.6797 47.5722 38.3651 45.7831 37.4322C37.9884 33.3605 29.8236 29.9627 21.5075 27.005C33.3348 25.3795 45.2602 25.1215 57.1989 26.0198C61.4416 26.3386 65.6693 26.8363 69.8772 27.4865C73.3465 28.022 76.1304 28.4959 79.6767 29.5355C80.9889 29.9213 82.2872 30.3652 83.5697 30.8417C83.8996 30.9635 84.2279 31.0911 84.5525 31.2207C84.6084 31.2434 84.6536 31.2598 84.6959 31.2753C84.7267 31.2875 84.7596 31.3034 84.7961 31.3172C85.5701 31.6411 86.3344 31.987 87.0954 32.3443C88.401 32.9549 89.6794 33.6259 90.9383 34.3315C89.4988 34.7717 88.0992 35.3634 86.7616 36.1379C79.3629 40.4167 76.9796 51.0529 79.4915 58.7365C82.4838 67.8907 93.0273 74.9697 102.712 73.4628C114.802 71.5822 116.772 56.6003 112.811 47.1551C111.696 44.4945 110.19 42.0547 108.398 39.8255C116.486 41.9833 124.379 46.0714 131.051 50.782C134.546 53.2509 137.862 56.021 140.823 59.1032C140.873 59.1553 140.91 59.1909 140.936 59.2202C140.961 59.2495 140.99 59.2797 141.031 59.3226C141.187 59.4928 141.339 59.6651 141.493 59.8344C141.791 60.1706 142.084 60.5145 142.373 60.8604C142.964 61.5716 143.522 62.3103 144.053 63.0689C144.995 64.4173 145.794 65.6555 146.353 66.8697L146.424 67.0305C147.243 68.8615 151.039 68.9774 150.423 66.4886C149.591 63.141 147.64 60.2596 145.464 57.6198C142.636 54.1915 139.76 51.5631 136.079 48.7072C128.555 42.8762 119.981 38.1809 110.851 35.3969C108.013 34.5315 104.991 33.8355 101.949 33.5063C96.5146 29.2217 90.0348 26.0585 83.8174 23.8639C76.6654 21.3385 68.9042 20.3113 61.4009 19.4592C52.542 18.454 43.6352 18.2391 34.7355 18.5637C28.8159 18.7799 22.8995 19.3045 17.0383 20.1622C17.996 19.2232 18.9525 18.2775 19.9004 17.3294C23.1077 14.1197 26.561 10.8178 29.0345 6.98855C32.0126 2.37899 22.9607 -1.85111 20.2919 2.28097C17.9735 5.87002 15.0069 9.02624 12.0868 12.1309C8.55917 15.8769 5.32402 19.0535 1.71395 22.6013C1.03709 23.2658 0.688558 23.9833 0.59953 24.6901L0.594603 24.6856ZM106.217 60.0008C106.094 60.6107 105.925 61.207 105.735 61.8003C105.647 62.0788 105.542 62.3493 105.441 62.6207C105.408 62.7105 105.162 63.2377 105.123 63.3409C104.692 64.1461 104.155 64.8889 103.54 65.5654C103.515 65.586 103.485 65.6144 103.447 65.6468C103.277 65.8016 103.098 65.9417 102.916 66.0837C102.737 66.2237 102.55 66.3489 102.363 66.4741C102.293 66.5218 102.106 66.6253 101.964 66.7046C101.63 66.8612 101.29 66.9972 100.942 67.1184C100.883 67.1384 100.821 67.1574 100.762 67.1774C100.657 67.2026 100.445 67.2551 100.34 67.2737C99.9223 67.3529 99.4979 67.3928 99.0731 67.4232C98.761 67.4215 98.4518 67.3989 98.1427 67.3763C97.9438 67.3613 97.2806 67.2564 97.0786 67.2312C96.757 67.1552 96.4371 67.0736 96.1205 66.9805C95.7781 66.8798 95.4369 66.764 95.1012 66.6404C95.3285 66.7073 94.1052 66.1892 93.842 66.0528C93.3835 65.8154 92.9373 65.5569 92.4975 65.2878C92.4023 65.2287 92.3108 65.1677 92.2185 65.1095C92.1336 65.0472 91.8785 64.8728 91.7907 64.8098C91.3672 64.4958 90.9598 64.1586 90.5616 63.8116C90.3625 63.6382 90.1688 63.457 89.975 63.2758C89.8964 63.2029 89.5411 62.8376 89.4457 62.7474C88.8009 62.0267 88.2187 61.2529 87.6873 60.4444C87.5404 60.221 87.4026 59.988 87.2668 59.7586C87.2557 59.7429 87.2496 59.7318 87.2415 59.717C87.2228 59.6742 87.1922 59.6186 87.1462 59.5305C86.8576 58.9705 86.6135 58.3862 86.3864 57.7976C86.1917 57.29 86.0363 56.766 85.8932 56.2425C85.8763 56.1723 85.8593 56.1238 85.8501 56.0807C85.8409 56.0376 85.8313 55.9851 85.819 55.91C85.765 55.6364 85.7263 55.3641 85.6855 55.0881C85.5083 53.8619 85.532 52.6327 85.6164 51.3996C85.7179 49.9696 86.1694 47.6579 86.8809 45.8016C86.937 45.6535 87.2654 44.9301 87.2768 44.8806C87.4413 44.5656 87.6194 44.2577 87.8053 43.9551C88.2557 43.221 88.8058 42.541 89.3967 41.9134C89.3984 41.9077 89.4021 41.9057 89.4059 41.9037C89.4187 41.8919 89.4315 41.8802 89.4452 41.8656C89.5844 41.7325 89.7305 41.6078 89.8766 41.483C90.1659 41.2327 90.4741 41.0033 90.7843 40.7777C91.0966 40.5558 91.4219 40.3533 91.7521 40.1554C91.7752 40.1404 91.7909 40.1295 91.8095 40.1194C92.0272 40.0064 92.2519 39.9016 92.4757 39.7997C93.1938 39.4735 93.9448 39.216 94.7051 39.0016C94.7154 38.9985 94.722 38.9973 94.7323 38.9941C94.9307 38.9468 95.1331 38.907 95.3327 38.8663C95.811 38.7708 96.2949 38.6988 96.7763 38.6353C96.9131 38.6166 97.0511 38.6044 97.1863 38.5913C97.4105 38.7752 97.6317 38.9583 97.8514 39.1471C98.3963 39.6118 98.9231 40.0959 99.4415 40.5869C99.6983 40.8301 99.9488 41.0839 100.2 41.3349C100.323 41.4609 100.442 41.5861 100.562 41.7085C100.603 41.7515 100.654 41.8101 100.728 41.8907C102.732 44.1108 104.144 46.2868 105.113 48.5193C106.296 51.2465 106.663 53.2645 106.632 56.3148C106.616 57.7513 106.5 58.5619 106.207 60.004L106.217 60.0008Z" fill="#333333"/>
</svg>
