<svg width="20" height="21" viewBox="0 0 20 21" fill="none" xmlns="http://www.w3.org/2000/svg">
<path fill-rule="evenodd" clip-rule="evenodd" d="M9.96434 3.75009C9.98808 3.74997 10.0119 3.74997 10.0356 3.75009C10.7757 4.80279 11.3473 5.98248 11.7114 7.24999H8.28857C8.65263 5.98248 9.22427 4.80279 9.96434 3.75009ZM11.993 4.04905C12.5486 5.04403 12.9797 6.11805 13.2651 7.24999H15.9175C15.0816 5.73135 13.6782 4.5691 11.993 4.04905ZM16.5209 8.74999H13.5521C13.6276 9.32261 13.6666 9.90676 13.6666 10.5C13.6666 11.0933 13.6276 11.6774 13.5521 12.25H16.5209C16.6703 11.6919 16.7499 11.1052 16.7499 10.5C16.7499 9.89475 16.6703 9.30811 16.5209 8.74999ZM15.9175 13.75H13.2651C12.9797 14.8819 12.5486 15.956 11.993 16.9509C13.6782 16.4309 15.0816 15.2686 15.9175 13.75ZM10.0356 17.2499C10.0119 17.25 9.98808 17.25 9.96433 17.2499C9.22426 16.1972 8.65261 15.0175 8.28856 13.75H11.7114C11.3473 15.0175 10.7757 16.1972 10.0356 17.2499ZM8.00699 16.951C6.32176 16.4309 4.91831 15.2686 4.08247 13.75H6.73482C7.02025 14.8819 7.45134 15.956 8.00699 16.951ZM3.47906 12.25H6.44786C6.37231 11.6774 6.33332 11.0933 6.33332 10.5C6.33332 9.90676 6.37231 9.32261 6.44786 8.74999H3.47906C3.32965 9.30811 3.25 9.89475 3.25 10.5C3.25 11.1052 3.32965 11.6919 3.47906 12.25ZM4.08248 7.24999H6.73483C7.02026 6.11805 7.45135 5.04403 8.007 4.04905C6.32177 4.56909 4.91833 5.73134 4.08248 7.24999ZM9.99997 2.25C5.44364 2.25 1.75 5.94365 1.75 10.5C1.75 15.0563 5.44364 18.75 9.99997 18.75C14.5563 18.75 18.2499 15.0563 18.2499 10.5C18.2499 5.94365 14.5563 2.25 9.99997 2.25ZM7.96274 12.25H12.0372C12.1225 11.6791 12.1666 11.0947 12.1666 10.5C12.1666 9.90532 12.1225 9.32094 12.0372 8.74999H7.96275C7.87749 9.32094 7.83331 9.90532 7.83331 10.5C7.83331 11.0947 7.87749 11.6791 7.96274 12.25Z" fill="#F9F9F9"/>
</svg>
