<?xml version="1.0" encoding="UTF-8"?>
<svg id="Layer_2" data-name="Layer 2" xmlns="http://www.w3.org/2000/svg" viewBox="0 0 305.73 77.45">
  <defs>
    <style>
      .cls-1 {

      }
    </style>
  </defs>
  <g id="Layer_1-2" data-name="Layer 1">
    <path class="cls-1" d="M29.08,19.29C13.02,19.29,0,32.31,0,48.37s13.02,29.08,29.08,29.08,29.08-13.02,29.08-29.08-13.02-29.08-29.08-29.08ZM29.08,67.06c-10.32,0-18.69-8.37-18.69-18.69s8.37-18.69,18.69-18.69,18.69,8.37,18.69,18.69-8.37,18.69-18.69,18.69Z"/>
    <path class="cls-1" d="M91.25,22.85c-14.09,0-25.52,11.43-25.52,25.52v29.08h10.53v-28.35c0-8.28,6.71-15,15-15s15,6.71,15,15v28.35h10.53v-29.08c0-14.09-11.43-25.52-25.52-25.52Z"/>
    <path class="cls-1" d="M136.17,0h-10.53v51.93c0,14.09,11.43,25.52,25.52,25.52.78,0,1.56-.04,2.33-.11v-11.35c-.76.12-1.53.2-2.33.2-8.28,0-15-6.71-15-15v-15.94h17.32v-10.53h-17.32V0Z"/>
    <path class="cls-1" d="M161.72,49.43v28.03h10.53v-27.29c0-8.28,6.71-15,15-15,.79,0,1.57.08,2.33.2v-11.35c-.77-.07-1.54-.11-2.33-.11-14.09,0-25.52,11.43-25.52,25.52Z"/>
    <path class="cls-1" d="M221.45,19.29c-16.06,0-29.08,13.02-29.08,29.08s13.02,29.08,29.08,29.08c7.05,0,13.52-2.51,18.56-6.69v4.39h10.53v-26.78h0s0,0,0,0c0-16.06-13.02-29.08-29.08-29.08ZM221.45,67.06c-10.32,0-18.69-8.37-18.69-18.69s8.37-18.69,18.69-18.69,18.69,8.37,18.69,18.69-8.37,18.69-18.69,18.69Z"/>
    <path class="cls-1" d="M297.79,61.8c-3.36,3.25-7.93,5.26-12.98,5.26-10.32,0-18.69-8.37-18.69-18.69s8.37-18.69,18.69-18.69c5.28,0,10.04,2.2,13.44,5.72l7.48-7.22s-.01-.01-.02-.02h0c-5.29-5.47-12.7-8.88-20.9-8.88-16.06,0-29.08,13.02-29.08,29.08s13.02,29.08,29.08,29.08c7.85,0,14.98-3.12,20.21-8.18h0l-7.23-7.48Z"/>
  </g>
</svg>