<svg width="27" height="27" viewBox="0 0 27 27" fill="none" xmlns="http://www.w3.org/2000/svg">
<path fill-rule="evenodd" clip-rule="evenodd" d="M11.0567 0.51416C5.23935 0.51416 0.523438 5.23009 0.523438 11.0475C0.523438 16.8649 5.23935 21.5808 11.0567 21.5808C13.5331 21.5808 15.8099 20.7262 17.6083 19.2959L24.2083 25.896C24.677 26.3646 25.4368 26.3646 25.9054 25.896C26.374 25.4273 26.374 24.6675 25.9054 24.1989L19.3053 17.5988C20.7355 15.8005 21.59 13.5238 21.59 11.0475C21.59 5.23009 16.8741 0.51416 11.0567 0.51416ZM2.92343 11.0475C2.92343 6.55558 6.56483 2.91416 11.0567 2.91416C15.5486 2.91416 19.19 6.55558 19.19 11.0475C19.19 15.5394 15.5486 19.1808 11.0567 19.1808C6.56483 19.1808 2.92343 15.5394 2.92343 11.0475Z" fill="#989795" stroke="#989795" stroke-width="0.63"/>
</svg>
