<?xml version="1.0" encoding="UTF-8"?>
<svg id="Layer_1" xmlns="http://www.w3.org/2000/svg" version="1.1" viewBox="0 0 17 17">
  <!-- Generator: Adobe Illustrator 29.5.0, SVG Export Plug-In . SVG Version: 2.1.0 Build 137)  -->
  <defs>
    <style>
      .st0 {
        fill: #333;
        fill-rule: evenodd;
      }
    </style>
  </defs>
  <path class="st0" d="M7,.5C3.4.5.5,3.4.5,7s2.9,6.6,6.6,6.6,3-.5,4.1-1.4l4.1,4.1c.3.3.8.3,1.1,0s.3-.8,0-1.1l-4.1-4.1c.9-1.1,1.4-2.5,1.4-4.1C13.6,3.4,10.7.5,7,.5ZM2,7C2,4.2,4.2,2,7,2s5.1,2.3,5.1,5.1-2.3,5.1-5.1,5.1S2,9.8,2,7Z"/>
</svg>